<?xml version="1.0" encoding="utf-8"?>
<!-- Generated by Mocodo 4.2.11 -->
<svg width="1029" height="450" viewBox="0 0 1029 450" xmlns="http://www.w3.org/2000/svg">
<rect x="0" y="0" width="1029" height="450" fill="#ffffbf" stroke="none" stroke-width="0"/>

<!-- Association CONTIENT1 -->
<g>
	<line x1="86" y1="238" x2="86" y2="77" stroke="#74add1" stroke-width="2"/>
	<line x1="219" y1="77" x2="86" y2="77" stroke="#74add1" stroke-width="2"/>
	<g>
		<path d="M104 52 a14 14 90 0 1 14 14 V77 h-64 V66 a14 14 90 0 1 14 -14" fill="#abd9e9" stroke="#abd9e9" stroke-width="0"/>
		<path d="M118 77 v11 a14 14 90 0 1 -14 14 H68 a14 14 90 0 1 -14 -14 V77 H64" fill="#e0f3f8" stroke="#e0f3f8" stroke-width="0"/>
		<rect x="54" y="52" width="64" height="50" fill="none" rx="14" stroke="#74add1" stroke-width="2"/>
		<line x1="54" y1="77" x2="118" y2="77" stroke="#74add1" stroke-width="1"/>
		<text x="61" y="69.75" fill="#000000" font-family="Verdana" font-size="12">contient</text>
	</g>
	<text x="91" y="179" fill="#d73027" font-family="Verdana" font-size="12">1,0</text>
	<text x="154" y="94" fill="#d73027" font-family="Verdana" font-size="12">1,0</text>
</g>

<!-- Association EST_EVALUE -->
<g>
	<line x1="219" y1="77" x2="333" y2="77" stroke="#74add1" stroke-width="2"/>
	<line x1="467" y1="77" x2="333" y2="77" stroke="#74add1" stroke-width="2"/>
	<g>
		<path d="M358 52 a14 14 90 0 1 14 14 V77 h-78 V66 a14 14 90 0 1 14 -14" fill="#abd9e9" stroke="#abd9e9" stroke-width="0"/>
		<path d="M372 77 v11 a14 14 90 0 1 -14 14 H308 a14 14 90 0 1 -14 -14 V77 H78" fill="#e0f3f8" stroke="#e0f3f8" stroke-width="0"/>
		<rect x="294" y="52" width="78" height="50" fill="none" rx="14" stroke="#74add1" stroke-width="2"/>
		<line x1="294" y1="77" x2="372" y2="77" stroke="#74add1" stroke-width="1"/>
		<text x="302" y="69.75" fill="#000000" font-family="Verdana" font-size="12">est évalué</text>
	</g>
	<text x="263" y="94" fill="#d73027" font-family="Verdana" font-size="12">1,0</text>
	<text x="377" y="94" fill="#d73027" font-family="Verdana" font-size="12">0,N</text>
</g>

<!-- Association EVALUE -->
<g>
	<line x1="590" y1="238" x2="590" y2="77" stroke="#74add1" stroke-width="2"/>
	<line x1="467" y1="77" x2="590" y2="77" stroke="#74add1" stroke-width="2"/>
	<g>
		<path d="M604 52 a14 14 90 0 1 14 14 V77 h-56 V66 a14 14 90 0 1 14 -14" fill="#abd9e9" stroke="#abd9e9" stroke-width="0"/>
		<path d="M618 77 v11 a14 14 90 0 1 -14 14 H576 a14 14 90 0 1 -14 -14 V77 H56" fill="#e0f3f8" stroke="#e0f3f8" stroke-width="0"/>
		<rect x="562" y="52" width="56" height="50" fill="none" rx="14" stroke="#74add1" stroke-width="2"/>
		<line x1="562" y1="77" x2="618" y2="77" stroke="#74add1" stroke-width="1"/>
		<text x="570" y="69.75" fill="#000000" font-family="Verdana" font-size="12">évalue</text>
	</g>
	<text x="564" y="171" fill="#d73027" font-family="Verdana" font-size="12">1,0</text>
	<text x="535" y="94" fill="#d73027" font-family="Verdana" font-size="12">0,N</text>
</g>

<!-- Association DISPOSE_DE -->
<g>
	<line x1="590" y1="238" x2="694" y2="77" stroke="#74add1" stroke-width="2"/>
	<line x1="822" y1="77" x2="694" y2="77" stroke="#74add1" stroke-width="2"/>
	<g>
		<path d="M720 52 a14 14 90 0 1 14 14 V77 h-80 V66 a14 14 90 0 1 14 -14" fill="#abd9e9" stroke="#abd9e9" stroke-width="0"/>
		<path d="M734 77 v11 a14 14 90 0 1 -14 14 H668 a14 14 90 0 1 -14 -14 V77 H80" fill="#e0f3f8" stroke="#e0f3f8" stroke-width="0"/>
		<rect x="654" y="52" width="80" height="50" fill="none" rx="14" stroke="#74add1" stroke-width="2"/>
		<line x1="654" y1="77" x2="734" y2="77" stroke="#74add1" stroke-width="1"/>
		<text x="662" y="69.75" fill="#000000" font-family="Verdana" font-size="12">dispose de</text>
	</g>
	<text x="633" y="191.2" fill="#d73027" font-family="Verdana" font-size="12">1,N</text>
	<text x="739" y="94" fill="#d73027" font-family="Verdana" font-size="12">0,N</text>
</g>

<!-- Association INCLUT -->
<g>
	<line x1="333" y1="238" x2="219" y2="238" stroke="#74add1" stroke-width="2"/>
	<line x1="86" y1="238" x2="219" y2="238" stroke="#74add1" stroke-width="2"/>
	<g>
		<path d="M229 213 a14 14 90 0 1 14 14 V238 h-48 V227 a14 14 90 0 1 14 -14" fill="#abd9e9" stroke="#abd9e9" stroke-width="0"/>
		<path d="M243 238 v11 a14 14 90 0 1 -14 14 H209 a14 14 90 0 1 -14 -14 V238 H48" fill="#e0f3f8" stroke="#e0f3f8" stroke-width="0"/>
		<rect x="195" y="213" width="48" height="50" fill="none" rx="14" stroke="#74add1" stroke-width="2"/>
		<line x1="195" y1="238" x2="243" y2="238" stroke="#74add1" stroke-width="1"/>
		<text x="202" y="230.75" fill="#000000" font-family="Verdana" font-size="12">inclut</text>
	</g>
	<text x="249" y="255" fill="#d73027" font-family="Verdana" font-size="12">1,0</text>
	<text x="168" y="255" fill="#d73027" font-family="Verdana" font-size="12">0,N</text>
</g>

<!-- Association DETENIR -->
<g>
	<line x1="590" y1="238" x2="467" y2="238" stroke="#74add1" stroke-width="2"/>
	<line x1="333" y1="238" x2="467" y2="238" stroke="#74add1" stroke-width="2"/>
	<g>
		<path d="M482 213 a14 14 90 0 1 14 14 V238 h-58 V227 a14 14 90 0 1 14 -14" fill="#abd9e9" stroke="#abd9e9" stroke-width="0"/>
		<path d="M496 238 v11 a14 14 90 0 1 -14 14 H452 a14 14 90 0 1 -14 -14 V238 H58" fill="#e0f3f8" stroke="#e0f3f8" stroke-width="0"/>
		<rect x="438" y="213" width="58" height="50" fill="none" rx="14" stroke="#74add1" stroke-width="2"/>
		<line x1="438" y1="238" x2="496" y2="238" stroke="#74add1" stroke-width="1"/>
		<text x="445" y="230.75" fill="#000000" font-family="Verdana" font-size="12">détenir</text>
	</g>
	<text x="526" y="230" fill="#d73027" font-family="Verdana" font-size="12">1,0</text>
	<text x="396" y="255" fill="#d73027" font-family="Verdana" font-size="12">1,N</text>
</g>

<!-- Association REALISE -->
<g>
	<line x1="590" y1="238" x2="694" y2="238" stroke="#74add1" stroke-width="2"/>
	<line x1="822" y1="238" x2="694" y2="238" stroke="#74add1" stroke-width="2"/>
	<g>
		<path d="M707 213 a14 14 90 0 1 14 14 V238 h-54 V227 a14 14 90 0 1 14 -14" fill="#abd9e9" stroke="#abd9e9" stroke-width="0"/>
		<path d="M721 238 v11 a14 14 90 0 1 -14 14 H681 a14 14 90 0 1 -14 -14 V238 H54" fill="#e0f3f8" stroke="#e0f3f8" stroke-width="0"/>
		<rect x="667" y="213" width="54" height="50" fill="none" rx="14" stroke="#74add1" stroke-width="2"/>
		<line x1="667" y1="238" x2="721" y2="238" stroke="#74add1" stroke-width="1"/>
		<text x="674" y="230.75" fill="#000000" font-family="Verdana" font-size="12">réalise</text>
	</g>
	<text x="633" y="255" fill="#d73027" font-family="Verdana" font-size="12">1,0</text>
	<text x="737" y="255" fill="#d73027" font-family="Verdana" font-size="12">0,N</text>
</g>

<!-- Association CONTIENT2 -->
<g>
	<line x1="822" y1="238" x2="965" y2="238" stroke="#74add1" stroke-width="2"/>
	<line x1="965" y1="77" x2="965" y2="238" stroke="#74add1" stroke-width="2"/>
	<g>
		<path d="M983 213 a14 14 90 0 1 14 14 V238 h-64 V227 a14 14 90 0 1 14 -14" fill="#abd9e9" stroke="#abd9e9" stroke-width="0"/>
		<path d="M997 238 v11 a14 14 90 0 1 -14 14 H947 a14 14 90 0 1 -14 -14 V238 H64" fill="#e0f3f8" stroke="#e0f3f8" stroke-width="0"/>
		<rect x="933" y="213" width="64" height="50" fill="none" rx="14" stroke="#74add1" stroke-width="2"/>
		<line x1="933" y1="238" x2="997" y2="238" stroke="#74add1" stroke-width="1"/>
		<text x="940" y="230.75" fill="#000000" font-family="Verdana" font-size="12">contient</text>
	</g>
	<text x="885" y="255" fill="#d73027" font-family="Verdana" font-size="12">1,0</text>
	<text x="970" y="145" fill="#d73027" font-family="Verdana" font-size="12">0,N</text>
</g>

<!-- Association GENERE -->
<g>
	<line x1="333" y1="382" x2="219" y2="382" stroke="#74add1" stroke-width="2"/>
	<line x1="86" y1="382" x2="219" y2="382" stroke="#74add1" stroke-width="2"/>
	<g>
		<path d="M234 357 a14 14 90 0 1 14 14 V382 h-58 V371 a14 14 90 0 1 14 -14" fill="#abd9e9" stroke="#abd9e9" stroke-width="0"/>
		<path d="M248 382 v11 a14 14 90 0 1 -14 14 H204 a14 14 90 0 1 -14 -14 V382 H58" fill="#e0f3f8" stroke="#e0f3f8" stroke-width="0"/>
		<rect x="190" y="357" width="58" height="50" fill="none" rx="14" stroke="#74add1" stroke-width="2"/>
		<line x1="190" y1="382" x2="248" y2="382" stroke="#74add1" stroke-width="1"/>
		<text x="198" y="374.75" fill="#000000" font-family="Verdana" font-size="12">génère</text>
	</g>
	<text x="269" y="399" fill="#d73027" font-family="Verdana" font-size="12">1,0</text>
	<text x="135" y="399" fill="#d73027" font-family="Verdana" font-size="12">1,0</text>
</g>

<!-- Association EFFECTUE -->
<g>
	<line x1="590" y1="238" x2="467" y2="382" stroke="#74add1" stroke-width="2"/>
	<line x1="333" y1="382" x2="467" y2="382" stroke="#74add1" stroke-width="2"/>
	<g>
		<path d="M485 357 a14 14 90 0 1 14 14 V382 h-64 V371 a14 14 90 0 1 14 -14" fill="#abd9e9" stroke="#abd9e9" stroke-width="0"/>
		<path d="M499 382 v11 a14 14 90 0 1 -14 14 H449 a14 14 90 0 1 -14 -14 V382 H64" fill="#e0f3f8" stroke="#e0f3f8" stroke-width="0"/>
		<rect x="435" y="357" width="64" height="50" fill="none" rx="14" stroke="#74add1" stroke-width="2"/>
		<line x1="435" y1="382" x2="499" y2="382" stroke="#74add1" stroke-width="1"/>
		<text x="442" y="374.75" fill="#000000" font-family="Verdana" font-size="12">effectue</text>
	</g>
	<text x="526" y="280.77" fill="#d73027" font-family="Verdana" font-size="12">1,0</text>
	<text x="376" y="399" fill="#d73027" font-family="Verdana" font-size="12">1,N</text>
</g>

<!-- Association POSSEDE -->
<g>
	<line x1="590" y1="238" x2="590" y2="382" stroke="#74add1" stroke-width="2"/>
	<line x1="694" y1="382" x2="590" y2="382" stroke="#74add1" stroke-width="2"/>
	<g>
		<path d="M608 357 a14 14 90 0 1 14 14 V382 h-64 V371 a14 14 90 0 1 14 -14" fill="#abd9e9" stroke="#abd9e9" stroke-width="0"/>
		<path d="M622 382 v11 a14 14 90 0 1 -14 14 H572 a14 14 90 0 1 -14 -14 V382 H64" fill="#e0f3f8" stroke="#e0f3f8" stroke-width="0"/>
		<rect x="558" y="357" width="64" height="50" fill="none" rx="14" stroke="#74add1" stroke-width="2"/>
		<line x1="558" y1="382" x2="622" y2="382" stroke="#74add1" stroke-width="1"/>
		<text x="565" y="374.75" fill="#000000" font-family="Verdana" font-size="12">possède</text>
	</g>
	<text x="595" y="314" fill="#d73027" font-family="Verdana" font-size="12">1,0</text>
	<text x="627" y="399" fill="#d73027" font-family="Verdana" font-size="12">0,N</text>
</g>

<!-- Association CONTIENT3 -->
<g>
	<line x1="822" y1="238" x2="822" y2="382" stroke="#74add1" stroke-width="2"/>
	<line x1="965" y1="382" x2="822" y2="382" stroke="#74add1" stroke-width="2"/>
	<g>
		<path d="M840 357 a14 14 90 0 1 14 14 V382 h-64 V371 a14 14 90 0 1 14 -14" fill="#abd9e9" stroke="#abd9e9" stroke-width="0"/>
		<path d="M854 382 v11 a14 14 90 0 1 -14 14 H804 a14 14 90 0 1 -14 -14 V382 H64" fill="#e0f3f8" stroke="#e0f3f8" stroke-width="0"/>
		<rect x="790" y="357" width="64" height="50" fill="none" rx="14" stroke="#74add1" stroke-width="2"/>
		<line x1="790" y1="382" x2="854" y2="382" stroke="#74add1" stroke-width="1"/>
		<text x="797" y="374.75" fill="#000000" font-family="Verdana" font-size="12">contient</text>
	</g>
	<text x="827" y="323" fill="#d73027" font-family="Verdana" font-size="12">1,0</text>
	<text x="885" y="399" fill="#d73027" font-family="Verdana" font-size="12">0,N</text>
</g>

<!-- Entity PRODUCT -->
<g>
	<g>
		<rect x="180" y="9" width="78" height="25" fill="#fdae61" stroke="none" stroke-width="0" opacity="1"/>
		<rect x="180" y="34" width="78" height="111" fill="#fee090" stroke="none" stroke-width="0" opacity="1"/>
		<rect x="180" y="9" width="78" height="136" fill="none" stroke="#f46d43" stroke-width="2" opacity="1"/>
		<line x1="180" y1="34" x2="258" y2="34" stroke="#f46d43" stroke-width="1"/>
	</g>
	<text x="189" y="26.75" fill="#000000" font-family="Verdana" font-size="12">PRODUCT</text>
	<text x="185" y="51.8" fill="#000000" font-family="Verdana" font-size="12">id</text>
	<line x1="185" y1="54" x2="197" y2="54" stroke="#000000" stroke-width="1"/>
	<text x="185" y="68.8" fill="#000000" font-family="Verdana" font-size="12">name</text>
	<text x="185" y="85.8" fill="#000000" font-family="Verdana" font-size="12">description</text>
	<text x="185" y="102.8" fill="#000000" font-family="Verdana" font-size="12">price</text>
	<text x="185" y="119.8" fill="#000000" font-family="Verdana" font-size="12">stock</text>
	<text x="185" y="136.8" fill="#000000" font-family="Verdana" font-size="12">created_at</text>
</g>

<!-- Entity PRODUCT_RATING -->
<g>
	<g>
		<rect x="404" y="18" width="126" height="25" fill="#fdae61" stroke="none" stroke-width="0" opacity="1"/>
		<rect x="404" y="43" width="126" height="93" fill="#fee090" stroke="none" stroke-width="0" opacity="1"/>
		<rect x="404" y="18" width="126" height="118" fill="none" stroke="#f46d43" stroke-width="2" opacity="1"/>
		<line x1="404" y1="43" x2="530" y2="43" stroke="#f46d43" stroke-width="1"/>
	</g>
	<text x="410" y="35.75" fill="#000000" font-family="Verdana" font-size="12">PRODUCT_RATING</text>
	<text x="409" y="60.8" fill="#000000" font-family="Verdana" font-size="12">id</text>
	<line x1="409" y1="63" x2="421" y2="63" stroke="#000000" stroke-width="1"/>
	<text x="409" y="77.8" fill="#000000" font-family="Verdana" font-size="12">user_id</text>
	<text x="409" y="94.8" fill="#000000" font-family="Verdana" font-size="12">product_id</text>
	<text x="409" y="111.8" fill="#000000" font-family="Verdana" font-size="12">rating</text>
	<text x="409" y="128.8" fill="#000000" font-family="Verdana" font-size="12">comment</text>
</g>

<!-- Entity USER_ADDRESS -->
<g>
	<g>
		<rect x="766" y="9" width="112" height="25" fill="#fdae61" stroke="none" stroke-width="0" opacity="1"/>
		<rect x="766" y="34" width="112" height="111" fill="#fee090" stroke="none" stroke-width="0" opacity="1"/>
		<rect x="766" y="9" width="112" height="136" fill="none" stroke="#f46d43" stroke-width="2" opacity="1"/>
		<line x1="766" y1="34" x2="878" y2="34" stroke="#f46d43" stroke-width="1"/>
	</g>
	<text x="772" y="26.75" fill="#000000" font-family="Verdana" font-size="12">USER_ADDRESS</text>
	<text x="771" y="51.8" fill="#000000" font-family="Verdana" font-size="12">id</text>
	<line x1="771" y1="54" x2="783" y2="54" stroke="#000000" stroke-width="1"/>
	<text x="771" y="68.8" fill="#000000" font-family="Verdana" font-size="12">user_id</text>
	<text x="771" y="85.8" fill="#000000" font-family="Verdana" font-size="12">street</text>
	<text x="771" y="102.8" fill="#000000" font-family="Verdana" font-size="12">city</text>
	<text x="771" y="119.8" fill="#000000" font-family="Verdana" font-size="12">postal_code</text>
	<text x="771" y="136.8" fill="#000000" font-family="Verdana" font-size="12">country</text>
</g>

<!-- Entity CARD_PAYMENT -->
<g>
	<g>
		<rect x="910" y="26" width="110" height="25" fill="#fdae61" stroke="none" stroke-width="0" opacity="1"/>
		<rect x="910" y="51" width="110" height="77" fill="#fee090" stroke="none" stroke-width="0" opacity="1"/>
		<rect x="910" y="26" width="110" height="102" fill="none" stroke="#f46d43" stroke-width="2" opacity="1"/>
		<line x1="910" y1="51" x2="1020" y2="51" stroke="#f46d43" stroke-width="1"/>
	</g>
	<text x="915" y="43.75" fill="#000000" font-family="Verdana" font-size="12">CARD_PAYMENT</text>
	<text x="915" y="68.8" fill="#000000" font-family="Verdana" font-size="12">id</text>
	<line x1="915" y1="71" x2="927" y2="71" stroke="#000000" stroke-width="1"/>
	<text x="915" y="85.8" fill="#000000" font-family="Verdana" font-size="12">card_number</text>
	<text x="915" y="102.8" fill="#000000" font-family="Verdana" font-size="12">expiration_date</text>
	<text x="915" y="119.8" fill="#000000" font-family="Verdana" font-size="12">card_holder</text>
</g>

<!-- Entity SHOPPING_CART_ITEM -->
<g>
	<g>
		<rect x="9" y="187" width="154" height="25" fill="#fdae61" stroke="none" stroke-width="0" opacity="1"/>
		<rect x="9" y="212" width="154" height="77" fill="#fee090" stroke="none" stroke-width="0" opacity="1"/>
		<rect x="9" y="187" width="154" height="102" fill="none" stroke="#f46d43" stroke-width="2" opacity="1"/>
		<line x1="9" y1="212" x2="163" y2="212" stroke="#f46d43" stroke-width="1"/>
	</g>
	<text x="15" y="204.75" fill="#000000" font-family="Verdana" font-size="12">SHOPPING_CART_ITEM</text>
	<text x="14" y="229.8" fill="#000000" font-family="Verdana" font-size="12">id</text>
	<line x1="14" y1="232" x2="26" y2="232" stroke="#000000" stroke-width="1"/>
	<text x="14" y="246.8" fill="#000000" font-family="Verdana" font-size="12">cart_id</text>
	<text x="14" y="263.8" fill="#000000" font-family="Verdana" font-size="12">product_id</text>
	<text x="14" y="280.8" fill="#000000" font-family="Verdana" font-size="12">quantity</text>
</g>

<!-- Entity SHOPPING_CART -->
<g>
	<g>
		<rect x="275" y="196" width="116" height="25" fill="#fdae61" stroke="none" stroke-width="0" opacity="1"/>
		<rect x="275" y="221" width="116" height="59" fill="#fee090" stroke="none" stroke-width="0" opacity="1"/>
		<rect x="275" y="196" width="116" height="84" fill="none" stroke="#f46d43" stroke-width="2" opacity="1"/>
		<line x1="275" y1="221" x2="391" y2="221" stroke="#f46d43" stroke-width="1"/>
	</g>
	<text x="281" y="213.75" fill="#000000" font-family="Verdana" font-size="12">SHOPPING_CART</text>
	<text x="280" y="238.8" fill="#000000" font-family="Verdana" font-size="12">id</text>
	<line x1="280" y1="241" x2="292" y2="241" stroke="#000000" stroke-width="1"/>
	<text x="280" y="255.8" fill="#000000" font-family="Verdana" font-size="12">user_id</text>
	<text x="280" y="272.8" fill="#000000" font-family="Verdana" font-size="12">created_at</text>
</g>

<!-- Entity USER -->
<g>
	<g>
		<rect x="552" y="179" width="76" height="25" fill="#fdae61" stroke="none" stroke-width="0" opacity="1"/>
		<rect x="552" y="204" width="76" height="93" fill="#fee090" stroke="none" stroke-width="0" opacity="1"/>
		<rect x="552" y="179" width="76" height="118" fill="none" stroke="#f46d43" stroke-width="2" opacity="1"/>
		<line x1="552" y1="204" x2="628" y2="204" stroke="#f46d43" stroke-width="1"/>
	</g>
	<text x="573" y="196.75" fill="#000000" font-family="Verdana" font-size="12">USER</text>
	<text x="557" y="221.8" fill="#000000" font-family="Verdana" font-size="12">id</text>
	<line x1="557" y1="224" x2="569" y2="224" stroke="#000000" stroke-width="1"/>
	<text x="557" y="238.8" fill="#000000" font-family="Verdana" font-size="12">name</text>
	<text x="557" y="255.8" fill="#000000" font-family="Verdana" font-size="12">email</text>
	<text x="557" y="272.8" fill="#000000" font-family="Verdana" font-size="12">password</text>
	<text x="557" y="289.8" fill="#000000" font-family="Verdana" font-size="12">created_at</text>
</g>

<!-- Entity PAYMENT -->
<g>
	<g>
		<rect x="764" y="170" width="116" height="25" fill="#fdae61" stroke="none" stroke-width="0" opacity="1"/>
		<rect x="764" y="195" width="116" height="111" fill="#fee090" stroke="none" stroke-width="0" opacity="1"/>
		<rect x="764" y="170" width="116" height="136" fill="none" stroke="#f46d43" stroke-width="2" opacity="1"/>
		<line x1="764" y1="195" x2="880" y2="195" stroke="#f46d43" stroke-width="1"/>
	</g>
	<text x="793" y="187.75" fill="#000000" font-family="Verdana" font-size="12">PAYMENT</text>
	<text x="769" y="212.8" fill="#000000" font-family="Verdana" font-size="12">id</text>
	<line x1="769" y1="215" x2="781" y2="215" stroke="#000000" stroke-width="1"/>
	<text x="769" y="229.8" fill="#000000" font-family="Verdana" font-size="12">user_id</text>
	<text x="769" y="246.8" fill="#000000" font-family="Verdana" font-size="12">payment_type</text>
	<text x="769" y="263.8" fill="#000000" font-family="Verdana" font-size="12">card_payment_id</text>
	<text x="769" y="280.8" fill="#000000" font-family="Verdana" font-size="12">iban_payment_id</text>
	<text x="769" y="297.8" fill="#000000" font-family="Verdana" font-size="12">created_at</text>
</g>

<!-- Entity INVOICE -->
<g>
	<g>
		<rect x="42" y="323" width="88" height="25" fill="#fdae61" stroke="none" stroke-width="0" opacity="1"/>
		<rect x="42" y="348" width="88" height="93" fill="#fee090" stroke="none" stroke-width="0" opacity="1"/>
		<rect x="42" y="323" width="88" height="118" fill="none" stroke="#f46d43" stroke-width="2" opacity="1"/>
		<line x1="42" y1="348" x2="130" y2="348" stroke="#f46d43" stroke-width="1"/>
	</g>
	<text x="59" y="340.75" fill="#000000" font-family="Verdana" font-size="12">INVOICE</text>
	<text x="47" y="365.8" fill="#000000" font-family="Verdana" font-size="12">id</text>
	<line x1="47" y1="368" x2="59" y2="368" stroke="#000000" stroke-width="1"/>
	<text x="47" y="382.8" fill="#000000" font-family="Verdana" font-size="12">order_id</text>
	<text x="47" y="399.8" fill="#000000" font-family="Verdana" font-size="12">total</text>
	<text x="47" y="416.8" fill="#000000" font-family="Verdana" font-size="12">invoice_date</text>
	<text x="47" y="433.8" fill="#000000" font-family="Verdana" font-size="12">created_at</text>
</g>

<!-- Entity ORDER -->
<g>
	<g>
		<rect x="295" y="331" width="76" height="25" fill="#fdae61" stroke="none" stroke-width="0" opacity="1"/>
		<rect x="295" y="356" width="76" height="77" fill="#fee090" stroke="none" stroke-width="0" opacity="1"/>
		<rect x="295" y="331" width="76" height="102" fill="none" stroke="#f46d43" stroke-width="2" opacity="1"/>
		<line x1="295" y1="356" x2="371" y2="356" stroke="#f46d43" stroke-width="1"/>
	</g>
	<text x="311" y="348.75" fill="#000000" font-family="Verdana" font-size="12">ORDER</text>
	<text x="300" y="373.8" fill="#000000" font-family="Verdana" font-size="12">id</text>
	<line x1="300" y1="376" x2="312" y2="376" stroke="#000000" stroke-width="1"/>
	<text x="300" y="390.8" fill="#000000" font-family="Verdana" font-size="12">user_id</text>
	<text x="300" y="407.8" fill="#000000" font-family="Verdana" font-size="12">cart_id</text>
	<text x="300" y="424.8" fill="#000000" font-family="Verdana" font-size="12">created_at</text>
</g>

<!-- Entity PHOTO -->
<g>
	<g>
		<rect x="654" y="331" width="80" height="25" fill="#fdae61" stroke="none" stroke-width="0" opacity="1"/>
		<rect x="654" y="356" width="80" height="77" fill="#fee090" stroke="none" stroke-width="0" opacity="1"/>
		<rect x="654" y="331" width="80" height="102" fill="none" stroke="#f46d43" stroke-width="2" opacity="1"/>
		<line x1="654" y1="356" x2="734" y2="356" stroke="#f46d43" stroke-width="1"/>
	</g>
	<text x="672" y="348.75" fill="#000000" font-family="Verdana" font-size="12">PHOTO</text>
	<text x="659" y="373.8" fill="#000000" font-family="Verdana" font-size="12">id</text>
	<line x1="659" y1="376" x2="671" y2="376" stroke="#000000" stroke-width="1"/>
	<text x="659" y="390.8" fill="#000000" font-family="Verdana" font-size="12">entity_type</text>
	<text x="659" y="407.8" fill="#000000" font-family="Verdana" font-size="12">entity_id</text>
	<text x="659" y="424.8" fill="#000000" font-family="Verdana" font-size="12">url</text>
</g>

<!-- Entity IBAN_PAYMENT -->
<g>
	<g>
		<rect x="912" y="331" width="106" height="25" fill="#fdae61" stroke="none" stroke-width="0" opacity="1"/>
		<rect x="912" y="356" width="106" height="77" fill="#fee090" stroke="none" stroke-width="0" opacity="1"/>
		<rect x="912" y="331" width="106" height="102" fill="none" stroke="#f46d43" stroke-width="2" opacity="1"/>
		<line x1="912" y1="356" x2="1018" y2="356" stroke="#f46d43" stroke-width="1"/>
	</g>
	<text x="917" y="348.75" fill="#000000" font-family="Verdana" font-size="12">IBAN_PAYMENT</text>
	<text x="917" y="373.8" fill="#000000" font-family="Verdana" font-size="12">id</text>
	<line x1="917" y1="376" x2="929" y2="376" stroke="#000000" stroke-width="1"/>
	<text x="917" y="390.8" fill="#000000" font-family="Verdana" font-size="12">iban</text>
	<text x="917" y="407.8" fill="#000000" font-family="Verdana" font-size="12">bank_name</text>
	<text x="917" y="424.8" fill="#000000" font-family="Verdana" font-size="12">account_holder</text>
</g>
</svg>